# File created by Blade
# Date/Time:  Wed Sep 24 19:42:34 2014
# Frame Rate: 120.000 fps
#------------------------------------------------------
:FULLY-SPECIFIED
:DEGREES
2953
root -4.791224 33.104678 -3.467520 7.393968 -1.993512 -2.537870
Spine -13.537092 11.236932 -6.231287
Head 18.053157 -15.630146 11.196706
LeftShoulder -15.945116 23.058349 8.098834
LeftArm 23.113477 28.658483 -67.168435
LeftForeArm 3.849441 0.000000 25.280909
LeftHand -25.615629 -0.000000 -4.754633
LeftHandThumb1 -26.253704 0.000000 33.147579
RightShoulder 290.615910 62.715574 227.305740
RightArm -10.951619 22.271467 31.563055
RightForeArm 14.399042 -0.000000 61.300951
RightHand -5.478894 -0.000000 -29.603281
RightHandThumb1 -24.326973 -0.000000 -32.862282
LeftUpLeg -1.065639 7.061968 6.236541
LeftLeg -1.861983 -0.000000 0.000000
LeftFoot -8.417375 6.338275 -19.962448
LeftToeBase 10.558363 -0.000000 -0.000000
RightUpLeg -4.408427 -6.353981 0.606735
RightLeg 1.779605 -0.000000 -0.000000
RightFoot -5.433826 -1.989644 -15.483399
RightToeBase -0.123680 -0.000000 0.000000
2954
root -4.793568 33.106108 -3.463454 7.361187 -2.080423 -2.568964
Spine -13.581776 11.245619 -6.281206
Head 18.039291 -15.623295 11.183795
LeftShoulder -15.938361 23.034518 8.135846
LeftArm 23.086605 28.643112 -67.178343
LeftForeArm 3.884518 -0.000000 25.257188
LeftHand -25.591895 -0.000000 -4.799394
LeftHandThumb1 -26.253704 0.000000 33.147579
RightShoulder 290.370938 62.717765 226.894612
RightArm -10.956891 21.650021 31.661573
RightForeArm 14.492694 -0.000000 57.805421
RightHand -6.604089 -0.000000 -31.050379
RightHandThumb1 -24.326973 -0.000000 -32.862282
LeftUpLeg -1.007017 7.091557 6.269897
LeftLeg -1.856700 -0.000000 0.000000
LeftFoot -8.441771 6.387674 -19.978808
LeftToeBase 10.529750 -0.000000 -0.000000
RightUpLeg -4.369566 -6.352111 0.629670
RightLeg 1.763791 -0.000000 -0.000000
RightFoot -5.429196 -1.885899 -15.466595
RightToeBase -0.100700 -0.000000 0.000000
2955
root -4.795985 33.107595 -3.458826 7.318115 -2.172421 -2.588178
Spine -13.618579 11.261330 -6.366909
Head 17.995656 -15.607788 11.242975
LeftShoulder -15.945845 23.063852 8.176785
LeftArm 23.153090 28.630138 -67.144282
LeftForeArm 3.941781 0.000000 25.213178
LeftHand -25.615006 0.000000 -4.791828
LeftHandThumb1 -26.253704 0.000000 33.147579
RightShoulder 289.948917 62.731469 226.314019
RightArm -11.026862 20.820941 31.796668
RightForeArm 14.586453 -0.000000 54.371634
RightHand -6.977128 -0.000000 -31.646290
RightHandThumb1 -24.326973 -0.000000 -32.862282
LeftUpLeg -0.941756 7.092855 6.293660
LeftLeg -1.841805 -0.000000 0.000000
LeftFoot -8.481208 6.446195 -20.000559
LeftToeBase 10.572810 -0.000000 -0.000000
RightUpLeg -4.324231 -6.315575 0.639188
RightLeg 1.758568 -0.000000 -0.000000
RightFoot -5.409543 -1.830055 -15.435055
RightToeBase -0.174646 -0.000000 0.000000
2956
root -4.797604 33.107914 -3.455002 7.282848 -2.257656 -2.608672
Spine -13.652614 11.270277 -6.445545
Head 17.935961 -15.628413 11.236196
LeftShoulder -15.945301 23.040393 8.223367
LeftArm 23.125340 28.585861 -67.168809
LeftForeArm 4.014538 0.000000 25.205965
LeftHand -25.591542 -0.000000 -4.798026
LeftHandThumb1 -26.253704 0.000000 33.147579
RightShoulder 289.671994 62.734700 225.910301
RightArm -11.035399 19.925945 31.909104
RightForeArm 14.966320 -0.000000 50.924397
RightHand -7.491180 -0.000000 -32.485063
RightHandThumb1 -24.326973 -0.000000 -32.862282
LeftUpLeg -0.884062 7.099748 6.315669
LeftLeg -1.832034 -0.000000 0.000000
LeftFoot -8.529395 6.504015 -20.042574
LeftToeBase 10.554795 -0.000000 -0.000000
RightUpLeg -4.288893 -6.306091 0.651654
RightLeg 1.757506 -0.000000 -0.000000
RightFoot -5.421059 -1.752378 -15.439460
RightToeBase -0.158196 -0.000000 0.000000
2957
root -4.799495 33.108154 -3.450878 7.250416 -2.341061 -2.634931
Spine -13.695765 11.253284 -6.502164
Head 17.888152 -15.582604 11.235522
LeftShoulder -15.969339 23.019387 8.237610
LeftArm 23.090470 28.567315 -67.167220
LeftForeArm 3.990753 -0.000000 25.204084
LeftHand -25.536649 0.000000 -4.740782
LeftHandThumb1 -26.253704 0.000000 33.147579
RightShoulder 288.845462 62.787689 224.826012
RightArm -11.260313 18.871574 32.107741
RightForeArm 15.259295 -0.000000 47.490030
RightHand -8.115688 -0.000000 -33.373160
RightHandThumb1 -24.326973 -0.000000 -32.862282
LeftUpLeg -0.830197 7.100465 6.343509
LeftLeg -1.817684 -0.000000 0.000000
LeftFoot -8.574659 6.568716 -20.069332
LeftToeBase 10.526087 -0.000000 -0.000000
RightUpLeg -4.254056 -6.266470 0.669187
RightLeg 1.752918 -0.000000 -0.000000
RightFoot -5.412469 -1.704579 -15.433561
RightToeBase -0.134248 -0.000000 0.000000
2958
root -4.800939 33.108712 -3.447950 7.217900 -2.426813 -2.658888
Spine -13.735567 11.246510 -6.575075
Head 17.831508 -15.568499 11.242014
LeftShoulder -16.015012 23.051243 8.227230
LeftArm 23.139330 28.516422 -67.116949
LeftForeArm 3.989509 -0.000000 25.218317
LeftHand -25.545972 -0.000000 -4.751425
LeftHandThumb1 -26.253704 0.000000 33.147579
RightShoulder 288.266308 62.799806 223.997899
RightArm -11.476761 17.926088 32.338839
RightForeArm 15.701182 -0.000000 44.091397
RightHand -8.819189 0.000000 -34.316045
RightHandThumb1 -24.326973 -0.000000 -32.862282
LeftUpLeg -0.782621 7.136486 6.366855
LeftLeg -1.796563 -0.000000 0.000000
LeftFoot -8.616734 6.602377 -20.092569
LeftToeBase 10.563414 -0.000000 -0.000000
RightUpLeg -4.228354 -6.217756 0.683344
RightLeg 1.763462 -0.000000 -0.000000
RightFoot -5.403749 -1.671384 -15.422888
RightToeBase -0.171332 -0.000000 0.000000
2959
root -4.801896 33.109291 -3.445654 7.174010 -2.515893 -2.681553
Spine -13.765428 11.239305 -6.644086
Head 17.789237 -15.567329 11.238337
LeftShoulder -16.006659 23.044610 8.226362
LeftArm 23.078294 28.418565 -67.129886
LeftForeArm 4.026672 0.000000 25.286980
LeftHand -25.605079 -0.000000 -4.777422
LeftHandThumb1 -26.253704 0.000000 33.147579
RightShoulder 287.223568 62.856075 222.656876
RightArm -11.871728 16.808825 32.624761
RightForeArm 16.215360 0.000000 40.809634
RightHand -9.443805 -0.000000 -35.311552
RightHandThumb1 -24.326973 -0.000000 -32.862282
LeftUpLeg -0.721292 7.160276 6.391268
LeftLeg -1.780906 -0.000000 0.000000
LeftFoot -8.661526 6.647297 -20.087053
LeftToeBase 10.619656 -0.000000 -0.000000
RightUpLeg -4.193487 -6.169009 0.693673
RightLeg 1.776050 -0.000000 -0.000000
RightFoot -5.412568 -1.635464 -15.403872
RightToeBase -0.156242 -0.000000 0.000000
2960
root -4.802907 33.110024 -3.443165 7.122498 -2.594243 -2.700707
Spine -13.794431 11.227228 -6.728629
Head 17.763537 -15.569005 11.221851
LeftShoulder -16.004311 23.063617 8.228215
LeftArm 23.069901 28.352814 -67.111819
LeftForeArm 4.037196 -0.000000 25.335126
LeftHand -25.668387 -0.000000 -4.727679
LeftHandThumb1 -26.253704 0.000000 33.147579
RightShoulder 286.131891 62.929565 221.230311
RightArm -12.402818 15.831121 32.923598
RightForeArm 16.692641 -0.000000 37.689787
RightHand -10.095455 -0.000000 -36.368595
RightHandThumb1 -24.326973 -0.000000 -32.862282
LeftUpLeg -0.659237 7.202665 6.410110
LeftLeg -1.755679 -0.000000 0.000000
LeftFoot -8.713963 6.666517 -19.961894
LeftToeBase 10.699746 -0.000000 -0.000000
RightUpLeg -4.149261 -6.132178 0.700940
RightLeg 1.787029 -0.000000 -0.000000
RightFoot -5.410722 -1.581663 -15.368324
RightToeBase -0.167767 -0.000000 0.000000
2961
root -4.804491 33.110029 -3.441652 7.082326 -2.668840 -2.720613
Spine -13.825415 11.201772 -6.813923
Head 17.707307 -15.592270 11.251870
LeftShoulder -16.025485 23.060202 8.227007
LeftArm 23.034229 28.290109 -67.103045
LeftForeArm 4.060590 -0.000000 25.407422
LeftHand -25.615422 0.000000 -4.632349
LeftHandThumb1 -26.253704 0.000000 33.147579
RightShoulder 285.172763 62.994756 219.984201
RightArm -12.959536 15.076967 33.253271
RightForeArm 17.486136 0.000000 34.853872
RightHand -10.804196 -0.000000 -37.844589
RightHandThumb1 -24.326973 -0.000000 -32.862282
LeftUpLeg -0.610098 7.217556 6.433549
LeftLeg -1.730655 -0.000000 0.000000
LeftFoot -8.733843 6.714799 -20.106413
LeftToeBase 10.576530 -0.000000 -0.000000
RightUpLeg -4.114705 -6.071661 0.712273
RightLeg 1.793999 -0.000000 -0.000000
RightFoot -5.400923 -1.576337 -15.410838
RightToeBase -0.193910 -0.000000 0.000000
2962
root -4.805094 33.111048 -3.439271 7.025099 -2.747784 -2.737411
Spine -13.851387 11.165966 -6.901552
Head 17.710006 -15.683194 11.117097
LeftShoulder -16.032787 23.060120 8.232975
LeftArm 22.987282 28.230148 -67.099460
LeftForeArm 4.014060 -0.000000 25.462937
LeftHand -25.603679 -0.000000 -4.581283
LeftHandThumb1 -26.253704 0.000000 33.147579
RightShoulder 284.262421 63.112883 218.817757
RightArm -13.627955 14.548435 33.546955
RightForeArm 18.524036 -0.000000 32.371790
RightHand -11.631933 0.000000 -39.461916
RightHandThumb1 -24.326973 -0.000000 -32.862282
LeftUpLeg -0.544040 7.248874 6.451416
LeftLeg -1.702221 -0.000000 0.000000
LeftFoot -8.773109 6.749994 -20.110355
LeftToeBase 10.625739 -0.000000 -0.000000
RightUpLeg -4.070028 -6.014970 0.715528
RightLeg 1.812714 -0.000000 -0.000000
RightFoot -5.396042 -1.549363 -15.368986
RightToeBase -0.203553 -0.000000 0.000000
2963
root -4.806234 33.110878 -3.437013 6.958396 -2.830022 -2.759806
Spine -13.866417 11.136325 -6.981862
Head 17.696359 -15.628473 11.189867
LeftShoulder -16.017556 23.065176 8.240354
LeftArm 22.925905 28.141547 -67.116329
LeftForeArm 4.039902 -0.000000 25.532274
LeftHand -25.673511 -0.000000 -4.563633
LeftHandThumb1 -26.253704 0.000000 33.147579
RightShoulder 283.941728 63.265171 218.387859
RightArm -14.218623 14.373720 33.769287
RightForeArm 20.167589 -0.000000 30.498568
RightHand -12.433415 -0.000000 -41.407250
RightHandThumb1 -24.326973 -0.000000 -32.862282
LeftUpLeg -0.467758 7.308768 6.477481
LeftLeg -1.671317 -0.000000 0.000000
LeftFoot -8.807725 6.747384 -20.153605
LeftToeBase 10.542687 -0.000000 -0.000000
RightUpLeg -4.015402 -5.934421 0.723568
RightLeg 1.836353 -0.000000 -0.000000
RightFoot -5.393632 -1.540914 -15.371241
RightToeBase -0.207470 -0.000000 0.000000
2964
root -4.807290 33.110976 -3.436285 6.891136 -2.911739 -2.777248
Spine -13.872443 11.111690 -7.070787
Head 17.683538 -15.632074 11.229638
LeftShoulder -16.016310 23.093355 8.225516
LeftArm 22.931332 28.067697 -67.080753
LeftForeArm 4.040910 0.000000 25.575648
LeftHand -25.634594 -0.000000 -4.574516
LeftHandThumb1 -26.253704 0.000000 33.147579
RightShoulder 284.113138 63.454884 218.655324
RightArm -14.687926 14.623865 33.872154
RightForeArm 22.453395 -0.000000 29.189729
RightHand -13.266815 -0.000000 -43.333048
RightHandThumb1 -24.326973 -0.000000 -32.862282
LeftUpLeg -0.392738 7.352091 6.497268
LeftLeg -1.648434 -0.000000 0.000000
LeftFoot -8.833487 6.771639 -20.134039
LeftToeBase 10.669264 -0.000000 -0.000000
RightUpLeg -3.964774 -5.878469 0.728682
RightLeg 1.859732 -0.000000 -0.000000
RightFoot -5.395703 -1.531374 -15.376630
RightToeBase -0.210175 -0.000000 0.000000
